<svg xmlns="http://www.w3.org/2000/svg" width="17" height="13.813" viewBox="0 0 17 13.813">
  <path id="패스_2004" data-name="패스 2004" d="M4.031,7.468a2.333,2.333,0,0,1,1.344.057A3.25,3.25,0,0,1,6.513,8.2a3.714,3.714,0,0,1,.819,1.067,2.873,2.873,0,0,1,.321,1.347A2.915,2.915,0,0,1,6.6,12.886a3.746,3.746,0,0,1-2.57.927A3.448,3.448,0,0,1,.993,12.381,6.218,6.218,0,0,1,0,8.76,9.6,9.6,0,0,1,1.49,3.425,8.809,8.809,0,0,1,6.134,0L7.01,1.123a7.789,7.789,0,0,0-3.447,2.47,5.579,5.579,0,0,0-1.11,3.369c0,.411.088.654.263.729a.862.862,0,0,0,.613,0Zm9.347,0a2.333,2.333,0,0,1,1.344.057A3.25,3.25,0,0,1,15.86,8.2a3.714,3.714,0,0,1,.819,1.067A2.873,2.873,0,0,1,17,10.612a2.915,2.915,0,0,1-1.052,2.274,3.746,3.746,0,0,1-2.57.927,3.448,3.448,0,0,1-3.038-1.432A6.218,6.218,0,0,1,9.347,8.76a9.6,9.6,0,0,1,1.49-5.335A8.809,8.809,0,0,1,15.481,0L16.3,1.123a7.8,7.8,0,0,0-3.389,2.47A5.579,5.579,0,0,0,11.8,6.963c0,.411.088.654.263.729a.862.862,0,0,0,.613,0Z" transform="translate(0)" fill="#5291ab"/>
</svg>
