<svg xmlns="http://www.w3.org/2000/svg" width="13.067" height="13.803" viewBox="0 0 13.067 13.803">
  <g id="구성_요소_717_1" data-name="구성 요소 717 – 1" transform="translate(0.534 0.5)">
    <p class="para">ath id="_" data-name=" " d="M4.981,12.8a.572.572,0,0,1-.561-.486l-.18-1.1a5.117,5.117,0,0,1-1.465-.832l-.988.379a.556.556,0,0,1-.2.037.564.564,0,0,1-.492-.291L.076,8.7a.592.592,0,0,1,.131-.74l.754-.635a5.175,5.175,0,0,1,0-1.844L.208,4.845A.592.592,0,0,1,.077,4.1L1.1,2.3a.562.562,0,0,1,.692-.254l.988.379a5.117,5.117,0,0,1,1.465-.832l.18-1.1A.573.573,0,0,1,4.981,0H7.019A.573.573,0,0,1,7.58.486l.18,1.1a5.114,5.114,0,0,1,1.464.832l.989-.379A.562.562,0,0,1,10.9,2.3L11.924,4.1a.592.592,0,0,1-.131.741l-.754.636a5.174,5.174,0,0,1,0,1.842l.754.636a.59.59,0,0,1,.131.74L10.9,10.506a.566.566,0,0,1-.492.291.553.553,0,0,1-.2-.037l-.989-.379a5.115,5.115,0,0,1-1.465.832l-.18,1.1a.573.573,0,0,1-.561.486Z" transform="translate(0)" fill="none" stroke="#999" stroke-linejoin="round" stroke-miterlimit="10" stroke-width="1"/>
    <g id="Oval" transform="translate(3.439 3.842)" fill="none" stroke-miterlimit="10">
      <p class="para">ath d="M2.565,5.121a2.471,2.471,0,0,0,2.556-2.56A2.472,2.472,0,0,0,2.565,0,2.479,2.479,0,0,0,0,2.561,2.478,2.478,0,0,0,2.565,5.121Z" stroke="none"/>
      <p class="para">ath d="M 2.565138101577759 4.121458053588867 C 3.496018171310425 4.121458053588867 4.121458053588867 3.494527816772461 4.121458053588867 2.56142783164978 C 4.121458053588867 1.627487778663635 3.496018171310425 0.9999978542327881 2.565138101577759 0.9999978542327881 C 1.62897801399231 0.9999978542327881 0.9999980926513672 1.627487778663635 0.9999980926513672 2.56142783164978 C 0.9999980926513672 3.494527816772461 1.62897801399231 4.121458053588867 2.565138101577759 4.121458053588867 M 2.565138101577759 5.121458053588867 C 1.078688025474548 5.121458053588867 -1.926879804159398e-06 4.045037746429443 -1.926879804159398e-06 2.56142783164978 C -1.926879804159398e-06 1.07782781124115 1.078688025474548 -2.165298383260961e-06 2.565138101577759 -2.165298383260961e-06 C 4.051578044891357 -2.165298383260961e-06 5.121458053588867 1.07782781124115 5.121458053588867 2.56142783164978 C 5.121458053588867 4.045037746429443 4.051578044891357 5.121458053588867 2.565138101577759 5.121458053588867 Z" stroke="none" fill="#999"/>
    </g>
  </g>
</svg>
