<svg id="그룹_5277" data-name="그룹 5277" xmlns="http://www.w3.org/2000/svg" width="73.044" height="88.638" viewBox="0 0 73.044 88.638">
  <path id="패스_1949" data-name="패스 1949" d="M37.12,1.3H30.8V30.518h6.32V18.945h4.924V12.3H37.12Z" transform="translate(-5.522 -0.233)" fill="#003629"/>
  <path id="패스_1954" data-name="패스 1954" d="M3.693,10.177a3.327,3.327,0,0,0-1.231,1.4,8.011,8.011,0,0,0-.821,3.611,9.858,9.858,0,0,0,10.095,9.438c5.581,0,10.095-4.268,10.095-9.438a8.011,8.011,0,0,0-.821-3.611,2.728,2.728,0,0,0-1.231-1.4l-.41-.164H23.39V3.939H15.019V0H8.7V3.939H0v6.073H4.1Zm8.043,1.067a4.067,4.067,0,0,1,4.022,3.939,4.012,4.012,0,0,1-4.022,3.939,4.067,4.067,0,0,1-4.022-3.939A4.124,4.124,0,0,1,11.736,11.244Z" fill="#003629"/>
  <path id="패스_1948" data-name="패스 1948" d="M23.539,66.213c0-5.5-4.76-10.013-10.669-10.013S2.2,60.714,2.2,66.213,6.96,76.226,12.869,76.226,23.539,71.794,23.539,66.213Zm-14.855,0a4.258,4.258,0,0,1,4.186-4.186,4.2,4.2,0,0,1,4.186,4.186A4.258,4.258,0,0,1,12.869,70.4,4.2,4.2,0,0,1,8.684,66.213Z" transform="translate(-0.394 -10.075)" fill="#003629"/>
  <path id="패스_1950" data-name="패스 1950" d="M12.72,32.4H6.4V46.6H33.237V40.525H12.72Z" transform="translate(-1.147 -5.809)" fill="#003629"/>
  <path id="패스_1951" data-name="패스 1951" d="M72.364,14.678h6.32V1.3H51.6V7.045H72.364Z" transform="translate(-9.333 -0.233)" fill="#003629"/>
  <rect id="사각형_1747" data-name="사각형 1747" width="6.32" height="19.205" transform="translate(25.278 46.781)" fill="#003629"/>
  <path id="패스_1952" data-name="패스 1952" d="M32.745,95.885V83H6.4v5.745H26.918v1.888H6.4v12.885H33.237V97.691H12.473V95.885Z" transform="translate(-1.147 -14.88)" fill="#003629"/>
  <path id="패스_1953" data-name="패스 1953" d="M60.86,30.213H50.355v5.745H71.611v8.453h6.32v-14.2H67.918V26.273H81.624V20.2H47.4v6.073H60.86Z" transform="translate(-8.58 -3.621)" fill="#003629"/>
  <path id="패스_1955" data-name="패스 1955" d="M57.62,57H51.3V79.324H78.63V57H72.31v5.745H57.62ZM72.31,68.9v4.432H57.62V68.9Z" transform="translate(-9.279 -10.219)" fill="#003629"/>
  <path id="패스_1956" data-name="패스 1956" d="M67.318,86.2h-7.14v5.253H46.8v6.073H81.516V91.453h-14.2Z" transform="translate(-8.472 -15.454)" fill="#003629"/>
</svg>
